<svg width="600" height="400" viewBox="0 0 600 400" fill="none" xmlns="http://www.w3.org/2000/svg">
  <defs>
    <linearGradient id="hero" x1="0" y1="400" x2="600" y2="0" gradientUnits="userSpaceOnUse">
      <stop stop-color="#0F172A" />
      <stop offset="0.5" stop-color="#312E81" />
      <stop offset="1" stop-color="#A855F7" />
    </linearGradient>
  </defs>
  <rect width="600" height="400" rx="40" fill="url(#hero)" />
  <g opacity="0.4">
    <circle cx="140" cy="120" r="70" fill="white" />
    <circle cx="440" cy="260" r="120" fill="white" />
  </g>
  <g filter="url(#shadow)">
    <path
      d="M160 160C210 120 260 140 300 160C340 180 390 200 440 160C480 130 520 140 540 180C560 220 540 280 480 310C420 340 360 320 300 300C240 280 200 320 160 300C120 280 100 200 160 160Z"
      fill="rgba(248,250,252,0.85)"
    />
  </g>
  <defs>
    <filter id="shadow" x="80" y="120" width="480" height="240" filterUnits="userSpaceOnUse">
      <feGaussianBlur stdDeviation="20" result="blur" />
    </filter>
  </defs>
</svg>
